<svg xmlns="http://www.w3.org/2000/svg" viewBox="0 0 413.65 142.74"><defs><style>.cls-1{fill:#91b122;}</style></defs><title>アセット 1</title><g id="レイヤー_2" data-name="レイヤー 2"><g id="レイヤー_1-2" data-name="レイヤー 1"><path class="cls-1" d="M38,142.74a38,38,0,0,0,38-38V34.22A38,38,0,0,0,54.64,0h0a0,0,0,0,0,0,0h0a61.23,61.23,0,0,1,8.59,19.52A60.89,60.89,0,0,0,51.57,15.7h0a0,0,0,0,0,0,0h0a26.88,26.88,0,0,1,12,31.76,38,38,0,0,0-51.1,0,26.88,26.88,0,0,1,12-31.76h0a0,0,0,0,0,0,0h0a60.9,60.9,0,0,0-11.62,3.88A61.23,61.23,0,0,1,21.45.06h0a0,0,0,0,0,0,0h0A38,38,0,0,0,0,34.22v70.5A38,38,0,0,0,38,142.74Zm0-94A27,27,0,0,1,65,75.67c0,.71,0,1.41-.09,2.11a38,38,0,0,0-53.68,0c-.05-.7-.09-1.4-.09-2.11A27,27,0,0,1,38,48.74Zm0,29A26.93,26.93,0,1,1,11.1,104.72,27,27,0,0,1,38,77.79Z"/><path class="cls-1" d="M190.16,59.51A2.46,2.46,0,0,1,187.73,57h0V33.76a2.43,2.43,0,0,0-2.43-2.43h-7.86A2.43,2.43,0,0,0,175,33.76v74.41a2.43,2.43,0,0,0,2.43,2.43h7.86a2.43,2.43,0,0,0,2.43-2.43v-1.62h0V83.68a14.21,14.21,0,0,1,28.42,0h0v24.48a2.43,2.43,0,0,0,2.43,2.43h7.86a2.43,2.43,0,0,0,2.43-2.43V83.68h0a26.87,26.87,0,0,0-38.7-24.18Z"/><path class="cls-1" d="M162.31,59.16a2.43,2.43,0,0,0-2.43-2.43H152a2.43,2.43,0,0,0-2.43,2.43V85.46h0a14.21,14.21,0,0,1-28.42,0V62.6h0V59.16a2.43,2.43,0,0,0-2.43-2.43H110.9a2.43,2.43,0,0,0-2.43,2.43V85.46h0a26.92,26.92,0,0,0,53.84,0h0Z"/><path class="cls-1" d="M295.41,59.16A2.43,2.43,0,0,0,293,56.73h-7.86a2.43,2.43,0,0,0-2.43,2.43V85.46h0a14.21,14.21,0,0,1-28.42,0V62.6h0V59.16a2.43,2.43,0,0,0-2.43-2.43H244a2.43,2.43,0,0,0-2.43,2.43V85.46h0a26.92,26.92,0,0,0,53.84,0h0Z"/><path class="cls-1" d="M413.65,59.16a2.43,2.43,0,0,0-2.43-2.43h-7.86a2.43,2.43,0,0,0-2.43,2.43V85.46a14.21,14.21,0,0,1-28.42,0V62.6h0V59.16a2.43,2.43,0,0,0-2.43-2.43h-7.86a2.43,2.43,0,0,0-2.43,2.43V85.46h0a26.92,26.92,0,0,0,53.84,0h0Z"/><path class="cls-1" d="M347.14,59.63h0a26.92,26.92,0,0,0-39,24h0v24.5a2.43,2.43,0,0,0,2.43,2.43h7.86a2.43,2.43,0,0,0,2.43-2.43v-1.62h0V83.68a14.21,14.21,0,0,1,20-13h0a2.43,2.43,0,0,0,3.31-.9L348,62.94A2.43,2.43,0,0,0,347.14,59.63Z"/></g></g></svg>