<?xml version="1.0" encoding="utf-8"?>
<!-- Generator: Adobe Illustrator 21.1.0, SVG Export Plug-In . SVG Version: 6.00 Build 0)  -->
<svg version="1.1" id="レイヤー_1" xmlns="http://www.w3.org/2000/svg" xmlns:xlink="http://www.w3.org/1999/xlink" x="0px"
	 y="0px" viewBox="0 0 147 186" width="147px" height="186px" style="enable-background:new 0 0 147 186;" xml:space="preserve">
<style type="text/css">
	.st0{fill:#90B023;}
</style>
<g id="logo">
	<g id="logo_x5F_text">
		<path class="st0" d="M39.3,160.4c-0.6,0-1.2-0.5-1.2-1.2l0,0v-2.5V148c0-0.6-0.5-1.2-1.2-1.2h-3.8c-0.6,0-1.2,0.5-1.2,1.2v8.5
			v27.4c0,0.6,0.5,1.2,1.2,1.2H37c0.6,0,1.2-0.5,1.2-1.2v-0.8l0,0v-11c0-3.8,3.1-6.8,6.8-6.8c3.8,0,6.8,3.1,6.8,6.8l0,0v11.8
			c0,0.6,0.5,1.2,1.2,1.2h3.8c0.6,0,1.2-0.5,1.2-1.2v-11.8l0,0l0,0c0-7.2-5.8-13-13-13C43,159,41.1,159.5,39.3,160.4z"/>
		<path class="st0" d="M25.9,160.2c0-0.6-0.5-1.2-1.2-1.2H21c-0.6,0-1.2,0.5-1.2,1.2v12.7l0,0c0,3.8-3.1,6.8-6.8,6.8
			s-6.8-3.1-6.8-6.8v-11l0,0v-1.7c0-0.6-0.5-1.2-1.2-1.2H1.2c-0.6,0-1.2,0.5-1.2,1.2v12.7l0,0c0,7.2,5.8,13,13,13s13-5.8,13-13l0,0
			L25.9,160.2z"/>
		<path class="st0" d="M90,160.2c0-0.6-0.5-1.2-1.2-1.2H85c-0.6,0-1.2,0.5-1.2,1.2v12.7l0,0c0,3.8-3.1,6.8-6.8,6.8
			c-3.8,0-6.8-3.1-6.8-6.8v-11l0,0v-1.7c0-0.6-0.5-1.2-1.2-1.2h-3.8c-0.6,0-1.2,0.5-1.2,1.2v12.7l0,0c0,7.2,5.8,13,13,13
			c7.2,0,13-5.8,13-13l0,0V160.2z"/>
		<path class="st0" d="M147,160.2c0-0.6-0.5-1.2-1.2-1.2H142c-0.6,0-1.2,0.5-1.2,1.2v12.7c0,3.8-3.1,6.8-6.8,6.8
			c-3.8,0-6.8-3.1-6.8-6.8v-11l0,0v-1.7c0-0.6-0.5-1.2-1.2-1.2h-3.8c-0.6,0-1.2,0.5-1.2,1.2v12.7l0,0c0,7.2,5.8,13,13,13
			s13-5.8,13-13l0,0V160.2z"/>
		<path class="st0" d="M115,160.4L115,160.4c-1.8-0.9-3.7-1.4-5.8-1.4c-7.2,0-13,5.8-13,13l0,0v11.8c0,0.6,0.5,1.2,1.2,1.2h3.8
			c0.6,0,1.2-0.5,1.2-1.2V183l0,0v-11c0-3.8,3.1-6.8,6.8-6.8c1,0,1.9,0.2,2.8,0.6l0,0c0.6,0.3,1.3,0.1,1.6-0.4l1.9-3.3
			C115.7,161.5,115.5,160.7,115,160.4z"/>
	</g>
	<path id="mark" class="st0" d="M73.7,135.2c19.9,0,36-16.1,36-36V32.4c0-14.2-8.3-26.6-20.3-32.4l0,0l0,0l0,0l0,0
		c3.7,5.6,6.5,11.8,8.1,18.5c-3.5-1.6-7.2-2.8-11-3.7l0,0l0,0l0,0l0,0c7.6,4.4,12.7,12.6,12.7,22c0,2.8-0.5,5.5-1.3,8
		C91.5,39,83,35.5,73.7,35.5S55.9,39,49.5,44.8c-0.8-2.5-1.3-5.2-1.3-8c0-9.4,5.1-17.6,12.7-22l0,0l0,0l0,0l0,0
		c-3.8,0.9-7.5,2.1-11,3.7C51.5,11.8,54.3,5.6,58,0l0,0l0,0l0,0l0,0C46,5.8,37.7,18.2,37.7,32.4v66.8
		C37.7,119.1,53.8,135.2,73.7,135.2z M73.7,46.2c14.1,0,25.5,11.4,25.5,25.5c0,0.7,0,1.3-0.1,2c-6.5-6.5-15.5-10.5-25.4-10.5
		s-18.9,4-25.4,10.5c-0.1-0.7-0.1-1.3-0.1-2C48.2,57.6,59.6,46.2,73.7,46.2z M73.7,73.7c14.1,0,25.5,11.4,25.5,25.5
		s-11.4,25.5-25.5,25.5s-25.5-11.4-25.5-25.5C48.2,85.1,59.6,73.7,73.7,73.7z"/>
</g>
</svg>
